HIERARCHY
ROOT Hips
{
	OFFSET 0.000000 89.005402 0.000000
	CHANNELS 6 Xposition Yposition Zposition Xrotation Yrotation Zrotation
	JOINT Spine
	{
		OFFSET 0.116900 10.681000 0.373400
		CHANNELS 3 Xrotation Yrotation Zrotation
		JOINT Spine1
		{
			OFFSET 0.000000 13.840401 0.053500
			CHANNELS 3 Xrotation Yrotation Zrotation
			JOINT Spine2
			{
				OFFSET 0.000000 14.712700 -0.366200
				CHANNELS 3 Xrotation Yrotation Zrotation
				JOINT Neck
				{
					OFFSET 0.000000 35.415497 -3.314200
					CHANNELS 3 Xrotation Yrotation Zrotation
					JOINT Head
					{
						OFFSET 0.000000 16.899200 1.218300
						CHANNELS 3 Xrotation Yrotation Zrotation
						JOINT HeadTop_End
						{
							OFFSET 0.000000 22.206207 2.192500
							CHANNELS 3 Xrotation Yrotation Zrotation
							End Site
							{
								OFFSET 0.000000 22.314178 0.000000
							}
						}
					}
				}
				JOINT LeftShoulder
				{
					OFFSET 12.896400 26.716293 -4.548400
					CHANNELS 3 Xrotation Yrotation Zrotation
					JOINT LeftArm
					{
						OFFSET 19.027000 -4.857010 -1.718400
						CHANNELS 3 Xrotation Yrotation Zrotation
						JOINT LeftForeArm
						{
							OFFSET 24.179897 0.000000 0.000000
							CHANNELS 3 Xrotation Yrotation Zrotation
							JOINT LeftHand
							{
								OFFSET 27.156403 0.000000 0.000000
								CHANNELS 3 Xrotation Yrotation Zrotation
								JOINT LeftHandIndex1
								{
									OFFSET 16.441200 0.000000 0.000000
									CHANNELS 3 Xrotation Yrotation Zrotation
									JOINT LeftHandIndex2
									{
										OFFSET 4.821899 0.000000 0.000000
										CHANNELS 3 Xrotation Yrotation Zrotation
										JOINT LeftHandIndex3
										{
											OFFSET 6.386497 0.000000 0.000000
											CHANNELS 3 Xrotation Yrotation Zrotation
											JOINT LeftHandIndex4
											{
												OFFSET 5.188988 0.000000 0.000000
												CHANNELS 3 Xrotation Yrotation Zrotation
												End Site
												{
													OFFSET -0.178703 5.185913 0.000177
												}
											}
										}
									}
								}
								JOINT LeftHandThumb1
								{
									OFFSET 6.534897 -5.032593 5.900300
									CHANNELS 3 Xrotation Yrotation Zrotation
									JOINT LeftHandThumb2
									{
										OFFSET 3.818176 -2.204422 2.204423
										CHANNELS 3 Xrotation Yrotation Zrotation
										JOINT LeftHandThumb3
										{
											OFFSET 3.252098 -1.877594 1.877601
											CHANNELS 3 Xrotation Yrotation Zrotation
											JOINT LeftHandThumb4
											{
												OFFSET 5.251778 -3.032120 3.032117
												CHANNELS 3 Xrotation Yrotation Zrotation
												End Site
												{
													OFFSET 0.000023 6.780014 0.000000
												}
											}
										}
									}
								}
							}
						}
					}
				}
				JOINT RightShoulder
				{
					OFFSET -12.896300 26.716293 -4.548400
					CHANNELS 3 Xrotation Yrotation Zrotation
					JOINT RightArm
					{
						OFFSET -19.027000 -4.857010 -1.718400
						CHANNELS 3 Xrotation Yrotation Zrotation
						JOINT RightForeArm
						{
							OFFSET -24.179897 0.000000 0.000000
							CHANNELS 3 Xrotation Yrotation Zrotation
							JOINT RightHand
							{
								OFFSET -27.156403 0.000000 0.000000
								CHANNELS 3 Xrotation Yrotation Zrotation
								JOINT RightHandThumb1
								{
									OFFSET -6.591202 -4.852203 5.988100
									CHANNELS 3 Xrotation Yrotation Zrotation
									JOINT RightHandThumb2
									{
										OFFSET -3.818176 -2.204422 2.204423
										CHANNELS 3 Xrotation Yrotation Zrotation
										JOINT RightHandThumb3
										{
											OFFSET -3.252098 -1.877594 1.877601
											CHANNELS 3 Xrotation Yrotation Zrotation
											JOINT RightHandThumb4
											{
												OFFSET -5.251778 -3.032120 3.032117
												CHANNELS 3 Xrotation Yrotation Zrotation
												End Site
												{
													OFFSET -0.000023 6.780014 0.000000
												}
											}
										}
									}
								}
								JOINT RightHandIndex1
								{
									OFFSET -16.029404 0.000000 0.000000
									CHANNELS 3 Xrotation Yrotation Zrotation
									JOINT RightHandIndex2
									{
										OFFSET -5.213303 0.000000 0.000000
										CHANNELS 3 Xrotation Yrotation Zrotation
										JOINT RightHandIndex3
										{
											OFFSET -6.386528 0.000000 0.000000
											CHANNELS 3 Xrotation Yrotation Zrotation
											JOINT RightHandIndex4
											{
												OFFSET -5.189026 0.000000 0.000000
												CHANNELS 3 Xrotation Yrotation Zrotation
												End Site
												{
													OFFSET 0.236702 5.183624 0.001972
												}
											}
										}
									}
								}
							}
						}
					}
				}
			}
		}
	}
	JOINT LeftUpLeg
	{
		OFFSET 14.073000 -7.904099 -1.463000
		CHANNELS 3 Xrotation Yrotation Zrotation
		JOINT LeftLeg
		{
			OFFSET -0.109806 -34.073280 4.093200
			CHANNELS 3 Xrotation Yrotation Zrotation
			JOINT LeftFoot
			{
				OFFSET 0.109806 -29.899420 -6.319000
				CHANNELS 3 Xrotation Yrotation Zrotation
				JOINT LeftToeBase
				{
					OFFSET 1.551100 -14.988700 20.535801
					CHANNELS 3 Xrotation Yrotation Zrotation
					JOINT LeftToe_End
					{
						OFFSET 0.221200 0.570800 13.248301
						CHANNELS 3 Xrotation Yrotation Zrotation
						End Site
						{
							OFFSET 0.000000 13.262435 0.000000
						}
					}
				}
			}
		}
	}
	JOINT RightUpLeg
	{
		OFFSET -13.839300 -7.904099 -1.463000
		CHANNELS 3 Xrotation Yrotation Zrotation
		JOINT RightLeg
		{
			OFFSET 0.109694 -34.073219 4.093300
			CHANNELS 3 Xrotation Yrotation Zrotation
			JOINT RightFoot
			{
				OFFSET -0.109694 -29.899384 -6.319200
				CHANNELS 3 Xrotation Yrotation Zrotation
				JOINT RightToeBase
				{
					OFFSET -1.551100 -14.988700 20.535801
					CHANNELS 3 Xrotation Yrotation Zrotation
					JOINT RightToe_End
					{
						OFFSET -0.221200 0.570900 13.248299
						CHANNELS 3 Xrotation Yrotation Zrotation
						End Site
						{
							OFFSET 0.000000 13.262440 0.000000
						}
					}
				}
			}
		}
	}
}
MOTION
Frames: 9
Frame Time: 0.033333
6.720829 85.563263 2.041588 -0.894079 1.382721 -4.771434 1.546368 -3.188325 2.506821 0.769433 -2.038327 6.314034 0.560958 -1.512058 6.253841 2.460590 3.740034 -1.818090 2.936647 10.296752 -10.531927 0.000000 -0.000001 0.000000 3.560486 -14.120051 -3.617105 4.075474 1.036007 -84.003021 0.000009 -13.824410 0.000016 -29.384167 6.993658 -5.280049 0.319163 4.410101 -5.890024 0.391810 2.836267 -20.700575 0.036559 0.830304 -10.303952 -0.000001 -0.000001 0.000002 19.194385 1.258443 10.250932 1.271776 31.787960 -3.066044 2.137674 9.089330 -0.505082 0.000001 0.000000 -0.000002 4.604184 2.572013 6.335136 -2.418447 1.743084 66.087988 -0.000004 18.709591 0.000007 -11.621936 -7.817514 10.455380 18.428235 0.749226 -10.921939 1.167574 -32.856106 3.096034 1.991079 -8.383096 1.097688 -0.000000 -0.000000 0.000000 0.331807 -4.664628 7.953532 0.386545 -2.822295 20.552651 -0.193175 -0.214931 13.830370 0.000000 0.000001 -0.000002 -13.247793 14.370781 12.685269 27.601010 9.448149 2.319361 -11.898900 15.220967 -9.236764 -0.432838 -0.000005 0.000001 -0.000000 0.000002 0.000000 -1.163964 -1.657513 7.453667 15.380546 1.019190 2.408544 -13.475295 -11.726042 -5.252358 -5.421314 0.000006 0.000001 0.000000 -0.000000 -0.000000 
5.396604 85.643700 2.205271 -0.893901 1.385548 -4.795308 1.529377 -2.840595 2.469729 0.770336 -1.591367 6.289436 0.600004 -1.066777 6.223318 2.167421 2.895488 -1.825008 2.682797 8.072546 -9.853882 -0.000000 -0.000001 0.000000 3.550462 -14.152780 -3.898753 3.869193 1.423865 -84.124332 0.000000 -14.354257 0.000023 -29.173060 6.505899 -5.995091 0.320037 4.417877 -5.943728 0.391571 2.835641 -20.693993 0.036460 0.829648 -10.297407 -0.000001 -0.000001 0.000001 19.167307 1.235893 10.245526 1.275069 31.796347 -3.074528 2.135235 9.080017 -0.493554 0.000001 0.000004 -0.000001 4.587042 2.695529 6.172073 -2.364473 1.459356 66.277191 0.000001 18.454992 0.000003 -11.511328 -7.940898 10.279588 18.384188 0.620197 -10.978667 1.251792 -32.847001 3.136883 1.993774 -8.390344 1.100310 -0.000000 0.000001 -0.000000 0.329873 -4.658256 7.947950 0.387237 -2.824128 20.572058 -0.193102 -0.216953 13.849723 -0.000000 -0.000000 -0.000001 -14.064654 13.412186 13.804540 27.035378 9.392243 2.311257 -10.410544 13.087368 -9.957727 -0.432842 0.000008 0.000002 -0.000000 -0.000002 -0.000000 -0.306138 -1.772410 8.338843 13.657170 1.322472 2.479492 -12.762184 -8.696523 -6.265990 -3.899040 -0.000003 0.000000 0.000000 0.000000 -0.000000 
4.114508 85.723267 2.209684 -0.893705 1.387706 -4.812371 1.483756 -2.454670 2.461325 0.763827 -1.134431 6.225682 0.631620 -0.611620 6.153218 1.881454 2.070848 -1.875911 2.419001 6.049266 -9.323251 -0.000000 -0.000000 0.000000 3.550647 -14.104597 -4.170726 3.845902 1.882304 -84.108582 0.000008 -14.559189 0.000022 -28.817924 5.905005 -6.843031 0.323299 4.460109 -6.250900 0.390727 2.833401 -20.670237 0.036119 0.827266 -10.273669 0.000001 -0.000000 0.000001 19.034713 0.959646 10.354723 1.278749 31.954869 -3.082741 2.129937 9.111848 -0.458688 0.000000 0.000003 0.000001 4.567244 2.843898 6.003895 -2.158067 1.216261 66.520428 -0.000004 18.255521 -0.000003 -11.444420 -8.187775 10.196203 18.388278 0.565570 -10.983454 1.277764 -32.834953 3.140930 1.996609 -8.397976 1.103041 0.000000 -0.000003 -0.000001 0.329885 -4.657010 7.939226 0.387385 -2.824524 20.576220 -0.193088 -0.217393 13.853942 0.000001 -0.000000 -0.000002 -14.972840 12.679614 14.868021 26.308687 9.334568 2.295969 -8.848025 10.685506 -10.516123 -0.432842 -0.000005 0.000003 -0.000000 0.000002 0.000000 0.507326 -2.160336 9.173916 11.982150 0.771455 2.575998 -11.897723 -5.751606 -7.049758 -2.517808 -0.000004 0.000000 -0.000000 0.000000 0.000000 
2.944738 85.798111 2.058462 -0.893506 1.389002 -4.821235 1.423030 -2.053374 2.467180 0.753002 -0.677834 6.145567 0.658298 -0.156714 6.066606 1.599892 1.257366 -1.955441 2.152887 4.135125 -8.882388 -0.000000 0.000001 -0.000000 3.558639 -14.001767 -4.453595 3.888702 2.376628 -83.993404 0.000007 -14.617727 0.000012 -28.421339 5.233523 -7.699332 0.326860 4.523650 -6.734794 0.389599 2.830404 -20.638487 0.035663 0.824088 -10.241987 0.000000 -0.000000 0.000002 18.864971 0.532571 10.521234 1.280527 32.197881 -3.085233 2.126123 9.171345 -0.428446 0.000000 0.000003 -0.000000 4.546952 3.002207 5.828171 -1.881591 1.026771 66.789025 -0.000002 18.084488 0.000008 -11.362536 -8.483513 10.173879 18.409520 0.533702 -10.970902 1.287347 -32.820162 3.132869 2.000278 -8.407819 1.106596 -0.000000 -0.000001 0.000001 0.332147 -4.661319 7.924026 0.387351 -2.824432 20.575274 -0.193092 -0.217290 13.852966 0.000000 0.000000 -0.000003 -15.919841 12.002592 15.750070 25.454944 9.352243 2.286762 -7.240106 8.161341 -10.891117 -0.432841 0.000005 0.000002 -0.000000 -0.000000 0.000000 1.256655 -2.714781 9.907434 10.424987 -0.474369 2.758357 -11.026675 -3.232879 -7.686351 -1.448082 -0.000000 -0.000002 0.000000 0.000000 0.000000 
1.954790 85.862747 1.757583 -0.893418 1.389510 -4.822469 1.356224 -1.638668 2.473007 0.740841 -0.214311 6.052957 0.683959 0.305023 5.967312 1.320868 0.460695 -2.052107 1.877613 2.295758 -8.491010 -0.000000 0.000000 0.000000 3.569898 -13.882686 -4.747863 3.950143 2.915911 -83.841023 0.000002 -14.595071 0.000023 -28.010584 4.503607 -8.554886 0.331975 4.595933 -7.284010 0.388354 2.827103 -20.603576 0.035162 0.820583 -10.207126 0.000001 -0.000000 -0.000002 18.684858 0.049396 10.709957 1.281943 32.471119 -3.086378 2.122742 9.240384 -0.399673 -0.000000 0.000001 -0.000001 4.527231 3.162438 5.649532 -1.571073 0.849379 67.064596 0.000002 17.915041 -0.000017 -11.272192 -8.792652 10.161178 18.442523 0.497764 -10.949817 1.291395 -32.794805 3.116715 2.004471 -8.419108 1.110637 0.000000 -0.000001 0.000000 0.335638 -4.666844 7.892319 0.387246 -2.824155 20.572316 -0.193103 -0.216985 13.850023 -0.000000 -0.000000 -0.000002 -16.891377 11.429130 16.382000 24.542779 9.182885 2.283783 -5.653392 5.865105 -10.998754 -0.432842 0.000005 0.000000 -0.000000 -0.000002 -0.000000 1.887795 -3.366270 10.507698 9.105826 -2.535118 2.982708 -10.253222 -1.018722 -8.114315 -0.780186 -0.000000 -0.000001 -0.000000 0.000000 -0.000000 
1.197749 85.912560 1.336282 -0.893489 1.320577 -4.818819 1.286597 -1.206580 2.472498 0.728744 0.264195 5.944687 0.710790 0.781493 5.852002 1.045307 -0.304693 -2.163992 1.584931 0.544178 -8.140494 -0.000000 0.000000 -0.000000 3.582356 -13.764047 -5.044456 4.032784 3.514252 -83.678355 0.000003 -14.506751 0.000000 -27.592520 3.698845 -9.416249 0.339569 4.671355 -7.844291 0.387033 2.823581 -20.566222 0.034632 0.816835 -10.169811 -0.000001 -0.000001 -0.000000 18.491277 -0.461425 10.916079 1.284068 32.757621 -3.088999 2.117139 9.311156 -0.358621 -0.000000 -0.000003 -0.000000 4.508128 3.324375 5.471576 -1.219626 0.655868 67.345412 -0.000001 17.736784 -0.000008 -11.193160 -9.123246 10.139318 18.491277 0.461423 -10.916087 1.284057 -32.757611 3.088968 2.008697 -8.430467 1.114725 0.000001 0.000004 0.000000 0.339563 -4.671353 7.844267 0.387030 -2.823579 20.566215 -0.193125 -0.216348 13.843967 0.000000 -0.000000 -0.000000 -17.834734 11.030595 16.761916 23.663414 8.786566 2.279057 -4.177215 4.012877 -10.862667 -0.432840 -0.000005 -0.000001 0.000000 0.000000 0.000000 2.374778 -4.087014 10.973600 8.085856 -5.303358 3.190554 -9.640683 1.084979 -8.311904 -0.520913 -0.000003 0.000000 -0.000000 -0.000001 -0.000000 
1.197749 85.912560 1.336282 -0.893489 1.320577 -4.818819 1.286597 -1.206580 2.472498 0.728744 0.264195 5.944687 0.710790 0.781493 5.852002 1.045307 -0.304693 -2.163992 1.584931 0.544178 -8.140494 -0.000000 0.000000 -0.000000 3.582356 -13.764047 -5.044456 4.032784 3.514252 -83.678355 0.000003 -14.506751 0.000000 -27.592520 3.698845 -9.416249 0.339569 4.671355 -7.844291 0.387033 2.823581 -20.566222 0.034632 0.816835 -10.169811 -0.000001 -0.000001 -0.000000 18.491277 -0.461425 10.916079 1.284068 32.757621 -3.088999 2.117139 9.311156 -0.358621 -0.000000 -0.000003 -0.000000 4.508128 3.324375 5.471576 -1.219626 0.655868 67.345412 -0.000001 17.736784 -0.000008 -11.193160 -9.123246 10.139318 18.491277 0.461423 -10.916087 1.284057 -32.757611 3.088968 2.008697 -8.430467 1.114725 0.000001 0.000004 0.000000 0.339563 -4.671353 7.844267 0.387030 -2.823579 20.566215 -0.193125 -0.216348 13.843967 0.000000 -0.000000 -0.000000 -17.834734 11.030595 16.761916 23.663414 8.786566 2.279057 -4.177215 4.012877 -10.862667 -0.432840 -0.000005 -0.000001 0.000000 0.000000 0.000000 2.374778 -4.087014 10.973600 8.085856 -5.303358 3.190554 -9.640683 1.084979 -8.311904 -0.520913 -0.000003 0.000000 -0.000000 -0.000001 -0.000000 
1.197749 85.912560 1.336282 -0.893489 1.320577 -4.818819 1.286597 -1.206580 2.472498 0.728744 0.264195 5.944687 0.710790 0.781493 5.852002 1.045307 -0.304693 -2.163992 1.584931 0.544178 -8.140494 -0.000000 0.000000 -0.000000 3.582356 -13.764047 -5.044456 4.032784 3.514252 -83.678355 0.000003 -14.506751 0.000000 -27.592520 3.698845 -9.416249 0.339569 4.671355 -7.844291 0.387033 2.823581 -20.566222 0.034632 0.816835 -10.169811 -0.000001 -0.000001 -0.000000 18.491277 -0.461425 10.916079 1.284068 32.757621 -3.088999 2.117139 9.311156 -0.358621 -0.000000 -0.000003 -0.000000 4.508128 3.324375 5.471576 -1.219626 0.655868 67.345412 -0.000001 17.736784 -0.000008 -11.193160 -9.123246 10.139318 18.491277 0.461423 -10.916087 1.284057 -32.757611 3.088968 2.008697 -8.430467 1.114725 0.000001 0.000004 0.000000 0.339563 -4.671353 7.844267 0.387030 -2.823579 20.566215 -0.193125 -0.216348 13.843967 0.000000 -0.000000 -0.000000 -17.834734 11.030595 16.761916 23.663414 8.786566 2.279057 -4.177215 4.012877 -10.862667 -0.432840 -0.000005 -0.000001 0.000000 0.000000 0.000000 2.374778 -4.087014 10.973600 8.085856 -5.303358 3.190554 -9.640683 1.084979 -8.311904 -0.520913 -0.000003 0.000000 -0.000000 -0.000001 -0.000000 
1.197749 85.912560 1.336282 -0.893489 1.320577 -4.818819 1.286597 -1.206580 2.472498 0.728744 0.264195 5.944687 0.710790 0.781493 5.852002 1.045307 -0.304693 -2.163992 1.584931 0.544178 -8.140494 -0.000000 0.000000 -0.000000 3.582356 -13.764047 -5.044456 4.032784 3.514252 -83.678355 0.000003 -14.506751 0.000000 -27.592520 3.698845 -9.416249 0.339569 4.671355 -7.844291 0.387033 2.823581 -20.566222 0.034632 0.816835 -10.169811 -0.000001 -0.000001 -0.000000 18.491277 -0.461425 10.916079 1.284068 32.757621 -3.088999 2.117139 9.311156 -0.358621 -0.000000 -0.000003 -0.000000 4.508128 3.324375 5.471576 -1.219626 0.655868 67.345412 -0.000001 17.736784 -0.000008 -11.193160 -9.123246 10.139318 18.491277 0.461423 -10.916087 1.284057 -32.757611 3.088968 2.008697 -8.430467 1.114725 0.000001 0.000004 0.000000 0.339563 -4.671353 7.844267 0.387030 -2.823579 20.566215 -0.193125 -0.216348 13.843967 0.000000 -0.000000 -0.000000 -17.834734 11.030595 16.761916 23.663414 8.786566 2.279057 -4.177215 4.012877 -10.862667 -0.432840 -0.000005 -0.000001 0.000000 0.000000 0.000000 2.374778 -4.087014 10.973600 8.085856 -5.303358 3.190554 -9.640683 1.084979 -8.311904 -0.520913 -0.000003 0.000000 -0.000000 -0.000001 -0.000000 
